<?xml version="1.0" encoding="utf-8"?>
<!-- Generator: Adobe Illustrator 19.2.0, SVG Export Plug-In . SVG Version: 6.00 Build 0)  -->
<svg version="1.1" id="Layer_1" xmlns="http://www.w3.org/2000/svg" xmlns:xlink="http://www.w3.org/1999/xlink" x="0px" y="0px"
	 viewBox="0 0 200 200" style="enable-background:new 0 0 200 200;" xml:space="preserve">
<g>
	<path d="M112.3,146.7h-8.2c-12.2,0-22.1-9.9-22.1-22.1V75.4c0-5.9-4.8-10.7-10.7-10.7H22.2c-5.9,0-10.7,4.8-10.7,10.7v49.2
		c0,5.9,4.8,10.7,10.7,10.7h24.6c5.9,0,10.7-4.8,10.7-10.7v-41c0-3.1,2.5-5.7,5.7-5.7c3.1,0,5.7,2.5,5.7,5.7v41
		c0,12.2-9.9,22.1-22.1,22.1H22.2c-12.2,0-22.1-9.9-22.1-22.1V75.4c0-12.2,9.9-22.1,22.1-22.1h49.2c12.2,0,22.1,9.9,22.1,22.1v49.2
		c0,5.9,4.8,10.7,10.7,10.7h8.2c3.1,0,5.7,2.5,5.7,5.7C118,144.1,115.4,146.7,112.3,146.7z"/>
	<path d="M177.8,146.7h-24.6c-12.2,0-22.1-9.9-22.1-22.1v-41c0-3.1,2.5-5.7,5.7-5.7c3.1,0,5.7,2.5,5.7,5.7v41
		c0,5.9,4.8,10.7,10.7,10.7h24.6c5.9,0,10.7-4.8,10.7-10.7V75.4c0-5.9-4.8-10.7-10.7-10.7h-49.2c-5.9,0-10.7,4.8-10.7,10.7V115
		c0,3.1-2.5,5.7-5.7,5.7s-5.7-2.5-5.7-5.7V75.4c0,0,0,0,0,0c0-12.2,9.9-22.1,22.1-22.1h49.2c12.2,0,22.1,9.9,22.1,22.1v49.2
		C199.9,136.8,190,146.7,177.8,146.7z"/>
</g>
</svg>
